# xmcd CD database file
#
# Track frame offsets:
#	183
#	28533
#	54310
#	76828
#	107478
#	131833
#	149385
#	177953
#	192125
#
# Disc length: 2871 seconds
#
# Revision: 0
# Processed by: cddbd v1.4PL0 Copyright (c) Steve Scherf et al.
# Submitted via: CDex 1.50beta10
#
DISCID=700b3509
DTITLE=Ricardo Ray and Bobby Cruz - The Best Of - Lo Mejor
DYEAR=1977
DGENRE=Salsa
TTITLE0=Aguzate
TTITLE1=Yenyere
TTITLE2=Amparo Arrebato
TTITLE3=Sonido Bestial
TTITLE4=El Diferente
TTITLE5=Agallu
TTITLE6=Guaguanco Raro
TTITLE7=Come Jen
TTITLE8=Traigo De Todo
EXTD=YEAR: 1977
EXTT0=
EXTT1=
EXTT2=
EXTT3=
EXTT4=
EXTT5=
EXTT6=
EXTT7=
EXTT8=
PLAYORDER=
